<?xml version="1.0" encoding="utf-8"?>
<svg version="1.1" xmlns="http://www.w3.org/2000/svg" xmlns:xlink="http://www.w3.org/1999/xlink" height="44.00000999999975" width="509.349365234375">
  <defs>
    <path id="path-1" opacity="1" fill-rule="evenodd" d="M509.349355234375,22.0859375 C509.349355234375,34.198760986328125 499.5464377539063,44 487.435292734375,44 C475.37889625,44 465.349355234375,34.248779296875 465.349355234375,22.0859375 C465.349355234375,9.977813720703125 475.3338523046875,0 487.435292734375,0 C499.58739234375,0 509.349355234375,10.017425537109375 509.349355234375,22.0859375 L500.5770163671875,7.790435791015625 C498.484365,11.575714111328125 493.79735328125,14.18035888671875 489.7472434179688,15.659423828125 C487.4803366796875,11.2000732421875 484.7071433203125,7.13214111328125 481.4650168554688,3.513702392578125 C483.3475852148438,2.9071044921875 485.3536887304688,2.578125 487.435292734375,2.578125 C492.5053000585938,2.578125 497.124745859375,4.55804443359375 500.5770163671875,7.790435791015625 L487.2440085546875,16.47314453125 C484.9800925390625,12.094024658203125 482.1807150976563,8.061676025390625 478.9127097265625,4.540924072265625 C473.6379904882813,7.113677978515625 469.6888938085938,11.996002197265625 468.3890891210938,17.863250732421875 C474.958974375,18.653472900390625 481.5898947851563,18.098236083984375 487.2440085546875,16.47314453125 L502.4042258398438,9.75189208984375 C499.8821921484375,13.658355712890625 495.2445578710938,16.3616943359375 490.8704733984375,17.9918212890625 C491.3985495703125,19.150970458984375 491.871816171875,20.2772216796875 492.3401389257813,21.500152587890625 C497.1778464453125,20.468902587890625 502.1934104101563,20.591094970703125 506.7668967382813,21.7381591796875 C506.6876731054688,17.1982421875 505.0645651953125,13.0316162109375 502.4042258398438,9.75189208984375 L467.99999,20.41351318359375 C475.0401511328125,21.271881103515625 482.2233176367188,20.664947509765625 488.3909812109375,18.8216552734375 C488.89452125,19.914337158203125 489.3665671484375,21.025482177734375 489.8046164648438,22.15374755859375 C482.720448984375,24.301177978515625 476.3033347265625,29.139190673828125 473.9652609960938,36.05950927734375 C470.2471213476563,32.5367431640625 467.927480234375,27.574859619140625 467.927480234375,22.0859375 C467.927480234375,21.52264404296875 467.9529929296875,20.965057373046875 467.99999,20.41351318359375 L496.285878671875,39.27410888671875 C495.9014792578125,34.016815185546875 494.8749289648438,28.888092041015625 493.22264625,23.959442138671875 C497.7088523046875,23.04669189453125 502.3860983984375,23.21856689453125 506.635976328125,24.36798095703125 C505.8682150976563,30.867340087890625 501.8654074804688,36.389495849609375 496.285878671875,39.27410888671875 L490.6921897070313,24.59625244140625 C483.4130149023438,26.7896728515625 477.7220358984375,31.7431640625 476.1244406835938,37.831298828125 C479.31688453125,40.090850830078125 483.2223410742188,41.421875 487.435292734375,41.421875 C489.6542258398438,41.421875 491.7865500585938,41.044891357421875 493.7728171484375,40.354034423828125 C493.4529318945313,34.9510498046875 492.399159921875,29.63232421875 490.6921897070313,24.59625244140625 L509.349355234375,22.0859375Z"/>
  </defs>
  <g opacity="1">
    <g opacity="1">
      <use xlink:href="#path-1" fill="rgb(255,255,255)" fill-opacity="1"/>
    </g>
  </g>
</svg>